RubikHebrew-Medium.ufo
<glyph name="percent" format="1">
  <advance width="785"/>
  <unicode hex="0025"/>
  <outline>
    <contour>
      <point x="164" y="0" type="line" smooth="yes"/>
      <point x="182" y="0"/>
      <point x="189" y="7"/>
      <point x="198" y="19" type="curve" smooth="yes"/>
      <point x="692" y="669" type="line" smooth="yes"/>
      <point x="695" y="673"/>
      <point x="696" y="678"/>
      <point x="696" y="680" type="curve" smooth="yes"/>
      <point x="696" y="692"/>
      <point x="687" y="700"/>
      <point x="674" y="700" type="curve" smooth="yes"/>
      <point x="621" y="700" type="line" smooth="yes"/>
      <point x="602" y="700"/>
      <point x="595" y="693"/>
      <point x="586" y="681" type="curve" smooth="yes"/>
      <point x="93" y="31" type="line" smooth="yes"/>
      <point x="90" y="27"/>
      <point x="89" y="22"/>
      <point x="89" y="20" type="curve" smooth="yes"/>
      <point x="89" y="8"/>
      <point x="98" y="0"/>
      <point x="111" y="0" type="curve" smooth="yes"/>
    </contour>
    <contour>
      <point x="488" y="140"/>
      <point x="543" y="194"/>
      <point x="548" y="274" type="curve" smooth="yes"/>
      <point x="550" y="308"/>
      <point x="550" y="329"/>
      <point x="548" y="366" type="curve" smooth="yes"/>
      <point x="543" y="446"/>
      <point x="493" y="500"/>
      <point x="399" y="500" type="curve" smooth="yes"/>
      <point x="304" y="500"/>
      <point x="254" y="446"/>
      <point x="249" y="366" type="curve" smooth="yes"/>
      <point x="247" y="329"/>
      <point x="247" y="308"/>
      <point x="249" y="274" type="curve" smooth="yes"/>
      <point x="254" y="194"/>
      <point x="309" y="140"/>
      <point x="399" y="140" type="curve" smooth="yes"/>
    </contour>
    <contour>
      <point x="356" y="218"/>
      <point x="342" y="249"/>
      <point x="340" y="278" type="curve" smooth="yes"/>
      <point x="338" y="311"/>
      <point x="338" y="330"/>
      <point x="340" y="361" type="curve" smooth="yes"/>
      <point x="342" y="392"/>
      <point x="357" y="422"/>
      <point x="398" y="422" type="curve" smooth="yes"/>
      <point x="440" y="422"/>
      <point x="455" y="392"/>
      <point x="456" y="361" type="curve" smooth="yes"/>
      <point x="459" y="330"/>
      <point x="459" y="311"/>
      <point x="456" y="278" type="curve" smooth="yes"/>
      <point x="454" y="249"/>
      <point x="440" y="218"/>
      <point x="398" y="218" type="curve" smooth="yes"/>
    </contour>
    <contour>
      <point x="476" y="202"/>
      <point x="531" y="253"/>
      <point x="536" y="333" type="curve" smooth="yes"/>
      <point x="538" y="367"/>
      <point x="538" y="388"/>
      <point x="536" y="425" type="curve" smooth="yes"/>
      <point x="531" y="505"/>
      <point x="481" y="559"/>
      <point x="387" y="559" type="curve" smooth="yes"/>
      <point x="292" y="559"/>
      <point x="242" y="505"/>
      <point x="237" y="425" type="curve" smooth="yes"/>
      <point x="235" y="388"/>
      <point x="235" y="367"/>
      <point x="237" y="333" type="curve" smooth="yes"/>
      <point x="242" y="253"/>
      <point x="297" y="202"/>
      <point x="387" y="202" type="curve" smooth="yes"/>
    </contour>
    <contour>
      <point x="344" y="277"/>
      <point x="330" y="308"/>
      <point x="328" y="337" type="curve" smooth="yes"/>
      <point x="326" y="370"/>
      <point x="326" y="389"/>
      <point x="328" y="420" type="curve" smooth="yes"/>
      <point x="330" y="451"/>
      <point x="345" y="481"/>
      <point x="386" y="481" type="curve" smooth="yes"/>
      <point x="428" y="481"/>
      <point x="443" y="451"/>
      <point x="444" y="420" type="curve" smooth="yes"/>
      <point x="447" y="389"/>
      <point x="447" y="370"/>
      <point x="444" y="337" type="curve" smooth="yes"/>
      <point x="442" y="308"/>
      <point x="428" y="277"/>
      <point x="386" y="277" type="curve" smooth="yes"/>
    </contour>
  </outline>
</glyph>
<glyph name="slash" format="1">
  <advance width="509"/>
  <unicode hex="002F"/>
  <outline>
    <contour>
      <point x="109" y="-84" type="line" smooth="yes"/>
      <point x="128" y="-84"/>
      <point x="137" y="-71"/>
      <point x="141" y="-63" type="curve" smooth="yes"/>
      <point x="482" y="754" type="line" smooth="yes"/>
      <point x="484" y="759"/>
      <point x="485" y="763"/>
      <point x="485" y="765" type="curve" smooth="yes"/>
      <point x="485" y="777"/>
      <point x="475" y="786"/>
      <point x="464" y="786" type="curve" smooth="yes"/>
      <point x="398" y="786" type="line" smooth="yes"/>
      <point x="380" y="786"/>
      <point x="371" y="774"/>
      <point x="367" y="765" type="curve" smooth="yes"/>
      <point x="27" y="-52" type="line"/>
      <point x="25" y="-57"/>
      <point x="24" y="-61"/>
      <point x="24" y="-63" type="curve" smooth="yes"/>
      <point x="24" y="-75"/>
      <point x="33" y="-84"/>
      <point x="45" y="-84" type="curve" smooth="yes"/>
    </contour>
  </outline>
</glyph>
<glyph name="eight" format="1">
  <advance width="657"/>
  <unicode hex="0038"/>
  <outline>
    <contour>
      <point x="505" y="-10"/>
      <point x="607" y="80"/>
      <point x="607" y="205" type="curve" smooth="yes"/>
      <point x="607" y="282"/>
      <point x="566" y="342"/>
      <point x="504" y="372" type="curve"/>
      <point x="552" y="403"/>
      <point x="580" y="452"/>
      <point x="580" y="516" type="curve" smooth="yes"/>
      <point x="580" y="631"/>
      <point x="491" y="710"/>
      <point x="328" y="710" type="curve" smooth="yes"/>
      <point x="165" y="710"/>
      <point x="75" y="630"/>
      <point x="75" y="515" type="curve" smooth="yes"/>
      <point x="75" y="451"/>
      <point x="104" y="402"/>
      <point x="152" y="372" type="curve"/>
      <point x="92" y="342"/>
      <point x="50" y="283"/>
      <point x="50" y="206" type="curve" smooth="yes"/>
      <point x="50" y="80"/>
      <point x="151" y="-10"/>
      <point x="328" y="-10" type="curve" smooth="yes"/>
    </contour>
    <contour>
      <point x="251" y="95"/>
      <point x="190" y="137"/>
      <point x="190" y="205" type="curve" smooth="yes"/>
      <point x="190" y="274"/>
      <point x="251" y="315"/>
      <point x="328" y="315" type="curve" smooth="yes"/>
      <point x="404" y="315"/>
      <point x="465" y="274"/>
      <point x="465" y="205" type="curve" smooth="yes"/>
      <point x="465" y="137"/>
      <point x="404" y="95"/>
      <point x="328" y="95" type="curve" smooth="yes"/>
    </contour>
    <contour>
      <point x="260" y="416"/>
      <point x="208" y="452"/>
      <point x="208" y="510" type="curve" smooth="yes"/>
      <point x="208" y="568"/>
      <point x="260" y="605"/>
      <point x="328" y="605" type="curve" smooth="yes"/>
      <point x="397" y="605"/>
      <point x="449" y="568"/>
      <point x="449" y="510" type="curve" smooth="yes"/>
      <point x="449" y="453"/>
      <point x="395" y="417"/>
      <point x="328" y="416" type="curve" smooth="yes"/>
    </contour>
  </outline>
</glyph>
<glyph name="colon" format="1">
  <advance width="275"/>
  <unicode hex="003A"/>
  <outline>
    <contour>
      <point x="188" y="350" type="line" smooth="yes"/>
      <point x="201" y="350"/>
      <point x="212" y="360"/>
      <point x="212" y="374" type="curve" smooth="yes"/>
      <point x="212" y="470" type="line" smooth="yes"/>
      <point x="212" y="484"/>
      <point x="201" y="495"/>
      <point x="188" y="495" type="curve" smooth="yes"/>
      <point x="87" y="495" type="line" smooth="yes"/>
      <point x="73" y="495"/>
      <point x="63" y="484"/>
      <point x="63" y="470" type="curve" smooth="yes"/>
      <point x="63" y="374" type="line" smooth="yes"/>
      <point x="63" y="360"/>
      <point x="73" y="350"/>
      <point x="87" y="350" type="curve" smooth="yes"/>
    </contour>
    <contour>
      <point x="188" y="0" type="line" smooth="yes"/>
      <point x="201" y="0"/>
      <point x="212" y="10"/>
      <point x="212" y="24" type="curve" smooth="yes"/>
      <point x="212" y="120" type="line" smooth="yes"/>
      <point x="212" y="134"/>
      <point x="201" y="145"/>
      <point x="188" y="145" type="curve" smooth="yes"/>
      <point x="87" y="145" type="line" smooth="yes"/>
      <point x="73" y="145"/>
      <point x="63" y="134"/>
      <point x="63" y="120" type="curve" smooth="yes"/>
      <point x="63" y="24" type="line" smooth="yes"/>
      <point x="63" y="10"/>
      <point x="73" y="0"/>
      <point x="87" y="0" type="curve" smooth="yes"/>
    </contour>
  </outline>
</glyph>
<glyph name="greater" format="1">
  <advance width="504"/>
  <unicode hex="003E"/>
  <outline>
    <contour>
      <point x="91" y="55"/>
      <point x="99" y="60"/>
      <point x="105" y="63" type="curve" smooth="yes"/>
      <point x="444" y="295" type="line" smooth="yes"/>
      <point x="463" y="308"/>
      <point x="473" y="320"/>
      <point x="473" y="339" type="curve" smooth="yes"/>
      <point x="473" y="363" type="line"/>
      <point x="473" y="383"/>
      <point x="463" y="394"/>
      <point x="444" y="408" type="curve" smooth="yes"/>
      <point x="105" y="639" type="line" smooth="yes"/>
      <point x="99" y="643"/>
      <point x="91" y="648"/>
      <point x="84" y="648" type="curve" smooth="yes"/>
      <point x="73" y="648"/>
      <point x="64" y="640"/>
      <point x="64" y="627" type="curve" smooth="yes"/>
      <point x="64" y="550" type="line" smooth="yes"/>
      <point x="64" y="531"/>
      <point x="75" y="523"/>
      <point x="90" y="513" type="curve" smooth="yes"/>
      <point x="331" y="351" type="line"/>
      <point x="90" y="189" type="line" smooth="yes"/>
      <point x="75" y="179"/>
      <point x="64" y="171"/>
      <point x="64" y="153" type="curve" smooth="yes"/>
      <point x="64" y="75" type="line" smooth="yes"/>
      <point x="64" y="63"/>
      <point x="73" y="55"/>
      <point x="84" y="55" type="curve" smooth="yes"/>
    </contour>
  </outline>
</glyph>
<glyph name="H" format="1">
  <advance width="730"/>
  <unicode hex="0048"/>
  <outline>
    <contour>
      <point x="194" y="0" type="line" smooth="yes"/>
      <point x="209" y="0"/>
      <point x="219" y="10"/>
      <point x="219" y="24" type="curve" smooth="yes"/>
      <point x="219" y="291" type="line"/>
      <point x="512" y="291" type="line"/>
      <point x="512" y="24" type="line" smooth="yes"/>
      <point x="512" y="10"/>
      <point x="522" y="0"/>
      <point x="536" y="0" type="curve" smooth="yes"/>
      <point x="628" y="0" type="line" smooth="yes"/>
      <point x="642" y="0"/>
      <point x="653" y="10"/>
      <point x="653" y="24" type="curve" smooth="yes"/>
      <point x="653" y="675" type="line" smooth="yes"/>
      <point x="653" y="690"/>
      <point x="642" y="700"/>
      <point x="628" y="700" type="curve" smooth="yes"/>
      <point x="536" y="700" type="line" smooth="yes"/>
      <point x="522" y="700"/>
      <point x="512" y="690"/>
      <point x="512" y="675" type="curve" smooth="yes"/>
      <point x="512" y="418" type="line"/>
      <point x="219" y="418" type="line"/>
      <point x="219" y="675" type="line" smooth="yes"/>
      <point x="219" y="690"/>
      <point x="209" y="700"/>
      <point x="194" y="700" type="curve" smooth="yes"/>
      <point x="102" y="700" type="line" smooth="yes"/>
      <point x="88" y="700"/>
      <point x="78" y="690"/>
      <point x="78" y="675" type="curve" smooth="yes"/>
      <point x="78" y="24" type="line" smooth="yes"/>
      <point x="78" y="10"/>
      <point x="88" y="0"/>
      <point x="102" y="0" type="curve" smooth="yes"/>
    </contour>
  </outline>
</glyph>
<glyph name="N" format="1">
  <advance width="707"/>
  <unicode hex="004E"/>
  <outline>
    <contour>
      <point x="188" y="0" type="line" smooth="yes"/>
      <point x="202" y="0"/>
      <point x="213" y="10"/>
      <point x="213" y="24" type="curve" smooth="yes"/>
      <point x="213" y="451" type="line"/>
      <point x="498" y="17" type="line" smooth="yes"/>
      <point x="501" y="12"/>
      <point x="508" y="0"/>
      <point x="527" y="0" type="curve" smooth="yes"/>
      <point x="606" y="0" type="line" smooth="yes"/>
      <point x="620" y="0"/>
      <point x="630" y="10"/>
      <point x="630" y="25" type="curve" smooth="yes"/>
      <point x="630" y="675" type="line" smooth="yes"/>
      <point x="630" y="690"/>
      <point x="620" y="700"/>
      <point x="605" y="700" type="curve" smooth="yes"/>
      <point x="519" y="700" type="line" smooth="yes"/>
      <point x="505" y="700"/>
      <point x="495" y="690"/>
      <point x="495" y="675" type="curve" smooth="yes"/>
      <point x="495" y="239" type="line"/>
      <point x="210" y="683" type="line" smooth="yes"/>
      <point x="207" y="688"/>
      <point x="199" y="700"/>
      <point x="180" y="700" type="curve" smooth="yes"/>
      <point x="102" y="700" type="line" smooth="yes"/>
      <point x="88" y="700"/>
      <point x="78" y="690"/>
      <point x="78" y="675" type="curve" smooth="yes"/>
      <point x="78" y="24" type="line" smooth="yes"/>
      <point x="78" y="10"/>
      <point x="88" y="0"/>
      <point x="102" y="0" type="curve" smooth="yes"/>
    </contour>
  </outline>
</glyph>
<glyph name="R" format="1">
  <advance width="674"/>
  <unicode hex="0052"/>
  <outline>
    <contour>
      <point x="194" y="0" type="line" smooth="yes"/>
      <point x="209" y="0"/>
      <point x="219" y="10"/>
      <point x="219" y="24" type="curve" smooth="yes"/>
      <point x="219" y="264" type="line"/>
      <point x="356" y="264" type="line"/>
      <point x="485" y="27" type="line" smooth="yes"/>
      <point x="491" y="15"/>
      <point x="501" y="0"/>
      <point x="525" y="0" type="curve" smooth="yes"/>
      <point x="617" y="0" type="line" smooth="yes"/>
      <point x="629" y="0"/>
      <point x="638" y="9"/>
      <point x="638" y="21" type="curve" smooth="yes"/>
      <point x="638" y="25"/>
      <point x="637" y="28"/>
      <point x="635" y="32" type="curve" smooth="yes"/>
      <point x="490" y="287" type="line"/>
      <point x="572" y="316"/>
      <point x="623" y="381"/>
      <point x="623" y="481" type="curve" smooth="yes"/>
      <point x="623" y="623"/>
      <point x="523" y="700"/>
      <point x="361" y="700" type="curve" smooth="yes"/>
      <point x="102" y="700" type="line" smooth="yes"/>
      <point x="88" y="700"/>
      <point x="78" y="690"/>
      <point x="78" y="675" type="curve" smooth="yes"/>
      <point x="78" y="24" type="line" smooth="yes"/>
      <point x="78" y="10"/>
      <point x="88" y="0"/>
      <point x="102" y="0" type="curve" smooth="yes"/>
    </contour>
    <contour>
      <point x="219" y="588" type="line"/>
      <point x="359" y="588" type="line" smooth="yes"/>
      <point x="440" y="588"/>
      <point x="478" y="548"/>
      <point x="478" y="482" type="curve" smooth="yes"/>
      <point x="478" y="415"/>
      <point x="439" y="378"/>
      <point x="359" y="378" type="curve" smooth="yes"/>
      <point x="219" y="378" type="line"/>
    </contour>
  </outline>
</glyph>
<glyph name="V" format="1">
  <advance width="675"/>
  <unicode hex="0056"/>
  <outline>
    <contour>
      <point x="393" y="0" type="line" smooth="yes"/>
      <point x="415" y="0"/>
      <point x="427" y="12"/>
      <point x="432" y="28" type="curve" smooth="yes"/>
      <point x="645" y="670" type="line" smooth="yes"/>
      <point x="646" y="673"/>
      <point x="647" y="677"/>
      <point x="647" y="679" type="curve" smooth="yes"/>
      <point x="647" y="691"/>
      <point x="638" y="700"/>
      <point x="626" y="700" type="curve" smooth="yes"/>
      <point x="536" y="700" type="line" smooth="yes"/>
      <point x="518" y="700"/>
      <point x="508" y="687"/>
      <point x="505" y="678" type="curve" smooth="yes"/>
      <point x="338" y="166" type="line"/>
      <point x="170" y="678" type="line" smooth="yes"/>
      <point x="167" y="687"/>
      <point x="157" y="700"/>
      <point x="139" y="700" type="curve" smooth="yes"/>
      <point x="49" y="700" type="line" smooth="yes"/>
      <point x="37" y="700"/>
      <point x="28" y="691"/>
      <point x="28" y="679" type="curve" smooth="yes"/>
      <point x="28" y="677"/>
      <point x="29" y="673"/>
      <point x="30" y="670" type="curve" smooth="yes"/>
      <point x="243" y="28" type="line" smooth="yes"/>
      <point x="248" y="12"/>
      <point x="260" y="0"/>
      <point x="282" y="0" type="curve" smooth="yes"/>
    </contour>
  </outline>
</glyph>
<glyph name="b" format="1">
  <advance width="614"/>
  <unicode hex="0062"/>
  <outline>
    <contour>
      <point x="495" y="-10"/>
      <point x="564" y="90"/>
      <point x="569" y="227" type="curve" smooth="yes"/>
      <point x="570" y="252"/>
      <point x="570" y="269"/>
      <point x="569" y="293" type="curve" smooth="yes"/>
      <point x="564" y="427"/>
      <point x="495" y="530"/>
      <point x="356" y="530" type="curve" smooth="yes"/>
      <point x="284" y="530"/>
      <point x="235" y="502"/>
      <point x="202" y="464" type="curve"/>
      <point x="202" y="686" type="line" smooth="yes"/>
      <point x="202" y="700"/>
      <point x="192" y="710"/>
      <point x="178" y="710" type="curve" smooth="yes"/>
      <point x="91" y="710" type="line" smooth="yes"/>
      <point x="77" y="710"/>
      <point x="67" y="700"/>
      <point x="67" y="686" type="curve" smooth="yes"/>
      <point x="67" y="24" type="line" smooth="yes"/>
      <point x="67" y="10"/>
      <point x="77" y="0"/>
      <point x="91" y="0" type="curve" smooth="yes"/>
      <point x="172" y="0" type="line" smooth="yes"/>
      <point x="186" y="0"/>
      <point x="196" y="10"/>
      <point x="196" y="24" type="curve" smooth="yes"/>
      <point x="196" y="61" type="line"/>
      <point x="229" y="20"/>
      <point x="278" y="-10"/>
      <point x="356" y="-10" type="curve" smooth="yes"/>
    </contour>
    <contour>
      <point x="235" y="98"/>
      <point x="204" y="162"/>
      <point x="201" y="225" type="curve" smooth="yes"/>
      <point x="200" y="249"/>
      <point x="200" y="277"/>
      <point x="201" y="302" type="curve" smooth="yes"/>
      <point x="203" y="362"/>
      <point x="238" y="422"/>
      <point x="317" y="422" type="curve" smooth="yes"/>
      <point x="400" y="422"/>
      <point x="426" y="361"/>
      <point x="430" y="290" type="curve" smooth="yes"/>
      <point x="432" y="270"/>
      <point x="432" y="250"/>
      <point x="430" y="230" type="curve" smooth="yes"/>
      <point x="426" y="159"/>
      <point x="400" y="98"/>
      <point x="317" y="98" type="curve" smooth="yes"/>
    </contour>
  </outline>
</glyph>
<glyph name="r" format="1">
  <advance width="419"/>
  <unicode hex="0072"/>
  <outline>
    <contour>
      <point x="179" y="0" type="line" smooth="yes"/>
      <point x="192" y="0"/>
      <point x="203" y="10"/>
      <point x="203" y="24" type="curve" smooth="yes"/>
      <point x="203" y="298" type="line" smooth="yes"/>
      <point x="203" y="361"/>
      <point x="241" y="399"/>
      <point x="304" y="399" type="curve" smooth="yes"/>
      <point x="383" y="399" type="line" smooth="yes"/>
      <point x="397" y="399"/>
      <point x="407" y="409"/>
      <point x="407" y="423" type="curve" smooth="yes"/>
      <point x="407" y="496" type="line" smooth="yes"/>
      <point x="407" y="510"/>
      <point x="397" y="520"/>
      <point x="383" y="520" type="curve" smooth="yes"/>
      <point x="341" y="520" type="line" smooth="yes"/>
      <point x="277" y="520"/>
      <point x="229" y="496"/>
      <point x="197" y="454" type="curve"/>
      <point x="197" y="495" type="line" smooth="yes"/>
      <point x="197" y="509"/>
      <point x="186" y="520"/>
      <point x="172" y="520" type="curve" smooth="yes"/>
      <point x="90" y="520" type="line" smooth="yes"/>
      <point x="76" y="520"/>
      <point x="66" y="509"/>
      <point x="66" y="495" type="curve" smooth="yes"/>
      <point x="66" y="24" type="line" smooth="yes"/>
      <point x="66" y="10"/>
      <point x="76" y="0"/>
      <point x="90" y="0" type="curve" smooth="yes"/>
    </contour>
  </outline>
</glyph>
<glyph name="v" format="1">
  <advance width="575"/>
  <unicode hex="0076"/>
  <outline>
    <contour>
      <point x="326" y="0" type="line" smooth="yes"/>
      <point x="346" y="0"/>
      <point x="356" y="11"/>
      <point x="362" y="25" type="curve"/>
      <point x="549" y="489" type="line" smooth="yes"/>
      <point x="550" y="492"/>
      <point x="551" y="496"/>
      <point x="551" y="498" type="curve" smooth="yes"/>
      <point x="551" y="510"/>
      <point x="541" y="520"/>
      <point x="529" y="520" type="curve" smooth="yes"/>
      <point x="446" y="520" type="line" smooth="yes"/>
      <point x="430" y="520"/>
      <point x="423" y="509"/>
      <point x="420" y="501" type="curve" smooth="yes"/>
      <point x="288" y="152" type="line"/>
      <point x="156" y="501" type="line" smooth="yes"/>
      <point x="153" y="509"/>
      <point x="145" y="520"/>
      <point x="129" y="520" type="curve" smooth="yes"/>
      <point x="47" y="520" type="line" smooth="yes"/>
      <point x="35" y="520"/>
      <point x="25" y="510"/>
      <point x="25" y="498" type="curve" smooth="yes"/>
      <point x="25" y="496"/>
      <point x="26" y="492"/>
      <point x="27" y="489" type="curve" smooth="yes"/>
      <point x="214" y="25" type="line"/>
      <point x="220" y="11"/>
      <point x="229" y="0"/>
      <point x="250" y="0" type="curve" smooth="yes"/>
    </contour>
  </outline>
</glyph>
<glyph name="dieresis" format="1">
  <advance width="431"/>
  <unicode hex="00A8"/>
  <outline>
    <contour>
      <point x="346" y="614" type="line" smooth="yes"/>
      <point x="359" y="614"/>
      <point x="369" y="623"/>
      <point x="369" y="636" type="curve" smooth="yes"/>
      <point x="369" y="710" type="line" smooth="yes"/>
      <point x="369" y="723"/>
      <point x="359" y="733"/>
      <point x="346" y="733" type="curve" smooth="yes"/>
      <point x="272" y="733" type="line" smooth="yes"/>
      <point x="259" y="733"/>
      <point x="250" y="723"/>
      <point x="250" y="710" type="curve" smooth="yes"/>
      <point x="250" y="636" type="line" smooth="yes"/>
      <point x="250" y="623"/>
      <point x="259" y="614"/>
      <point x="272" y="614" type="curve" smooth="yes"/>
    </contour>
    <contour>
      <point x="158" y="614" type="line" smooth="yes"/>
      <point x="171" y="614"/>
      <point x="181" y="623"/>
      <point x="181" y="636" type="curve" smooth="yes"/>
      <point x="181" y="710" type="line" smooth="yes"/>
      <point x="181" y="723"/>
      <point x="171" y="733"/>
      <point x="158" y="733" type="curve" smooth="yes"/>
      <point x="84" y="733" type="line" smooth="yes"/>
      <point x="71" y="733"/>
      <point x="62" y="723"/>
      <point x="62" y="710" type="curve" smooth="yes"/>
      <point x="62" y="636" type="line" smooth="yes"/>
      <point x="62" y="623"/>
      <point x="71" y="614"/>
      <point x="84" y="614" type="curve" smooth="yes"/>
    </contour>
  </outline>
</glyph>
<glyph name="guillemetleft" format="1">
  <advance width="615"/>
  <unicode hex="00AB"/>
  <outline>
    <contour>
      <point x="550" y="75"/>
      <point x="559" y="84"/>
      <point x="559" y="96" type="curve" smooth="yes"/>
      <point x="559" y="165" type="line" smooth="yes"/>
      <point x="559" y="184"/>
      <point x="554" y="192"/>
      <point x="541" y="205" type="curve" smooth="yes"/>
      <point x="413" y="329" type="line"/>
      <point x="541" y="453" type="line" smooth="yes"/>
      <point x="554" y="466"/>
      <point x="559" y="474"/>
      <point x="559" y="493" type="curve" smooth="yes"/>
      <point x="559" y="562" type="line" smooth="yes"/>
      <point x="559" y="574"/>
      <point x="550" y="583"/>
      <point x="538" y="583" type="curve" smooth="yes"/>
      <point x="533" y="583"/>
      <point x="525" y="580"/>
      <point x="518" y="574" type="curve" smooth="yes"/>
      <point x="318" y="380" type="line" smooth="yes"/>
      <point x="307" y="369"/>
      <point x="303" y="359"/>
      <point x="302" y="347" type="curve" smooth="yes"/>
      <point x="302" y="311" type="line" smooth="yes"/>
      <point x="303" y="299"/>
      <point x="307" y="289"/>
      <point x="318" y="279" type="curve" smooth="yes"/>
      <point x="518" y="84" type="line" smooth="yes"/>
      <point x="525" y="78"/>
      <point x="533" y="75"/>
      <point x="538" y="75" type="curve" smooth="yes"/>
    </contour>
    <contour>
      <point x="284" y="75"/>
      <point x="293" y="84"/>
      <point x="293" y="96" type="curve" smooth="yes"/>
      <point x="293" y="165" type="line" smooth="yes"/>
      <point x="293" y="184"/>
      <point x="288" y="192"/>
      <point x="275" y="205" type="curve" smooth="yes"/>
      <point x="147" y="329" type="line"/>
      <point x="275" y="453" type="line" smooth="yes"/>
      <point x="288" y="466"/>
      <point x="293" y="474"/>
      <point x="293" y="493" type="curve" smooth="yes"/>
      <point x="293" y="562" type="line" smooth="yes"/>
      <point x="293" y="574"/>
      <point x="284" y="583"/>
      <point x="272" y="583" type="curve" smooth="yes"/>
      <point x="267" y="583"/>
      <point x="259" y="580"/>
      <point x="252" y="574" type="curve" smooth="yes"/>
      <point x="52" y="380" type="line" smooth="yes"/>
      <point x="41" y="369"/>
      <point x="37" y="359"/>
      <point x="36" y="347" type="curve"/>
      <point x="36" y="311" type="line" smooth="yes"/>
      <point x="37" y="299"/>
      <point x="41" y="289"/>
      <point x="52" y="279" type="curve" smooth="yes"/>
      <point x="252" y="84" type="line" smooth="yes"/>
      <point x="259" y="78"/>
      <point x="267" y="75"/>
      <point x="272" y="75" type="curve" smooth="yes"/>
    </contour>
  </outline>
</glyph>
<glyph name="degree" format="1">
  <advance width="400"/>
  <unicode hex="00B0"/>
  <outline>
    <contour>
      <point x="289" y="398"/>
      <point x="361" y="465"/>
      <point x="361" y="554" type="curve" smooth="yes"/>
      <point x="361" y="643"/>
      <point x="289" y="710"/>
      <point x="200" y="710" type="curve" smooth="yes"/>
      <point x="111" y="710"/>
      <point x="39" y="643"/>
      <point x="39" y="554" type="curve" smooth="yes"/>
      <point x="39" y="465"/>
      <point x="111" y="398"/>
      <point x="200" y="398" type="curve" smooth="yes"/>
    </contour>
    <contour>
      <point x="155" y="478"/>
      <point x="124" y="509"/>
      <point x="124" y="554" type="curve" smooth="yes"/>
      <point x="124" y="599"/>
      <point x="155" y="630"/>
      <point x="200" y="630" type="curve" smooth="yes"/>
      <point x="245" y="630"/>
      <point x="276" y="599"/>
      <point x="276" y="554" type="curve" smooth="yes"/>
      <point x="276" y="509"/>
      <point x="245" y="478"/>
      <point x="200" y="478" type="curve" smooth="yes"/>
    </contour>
  </outline>
</glyph>
<glyph name="periodcentered" format="1">
  <advance width="330"/>
  <unicode hex="00B7"/>
  <outline>
    <contour>
      <point x="229" y="204"/>
      <point x="281" y="257"/>
      <point x="281" y="321" type="curve" smooth="yes"/>
      <point x="281" y="385"/>
      <point x="229" y="438"/>
      <point x="165" y="438" type="curve" smooth="yes"/>
      <point x="101" y="438"/>
      <point x="48" y="385"/>
      <point x="48" y="321" type="curve" smooth="yes"/>
      <point x="48" y="257"/>
      <point x="101" y="204"/>
      <point x="165" y="204" type="curve" smooth="yes"/>
    </contour>
  </outline>
</glyph>
<glyph name="Oslash" format="1">
  <advance width="723"/>
  <unicode hex="00D8"/>
  <outline>
    <contour>
      <point x="541" y="-10"/>
      <point x="650" y="79"/>
      <point x="656" y="264" type="curve"/>
      <point x="658" y="316"/>
      <point x="658" y="365"/>
      <point x="656" y="420" type="curve"/>
      <point x="689" y="432" type="line"/>
      <point x="705" y="438"/>
      <point x="711" y="444"/>
      <point x="711" y="461" type="curve"/>
      <point x="711" y="517" type="line"/>
      <point x="711" y="529"/>
      <point x="703" y="536"/>
      <point x="691" y="536" type="curve" smooth="yes"/>
      <point x="688" y="536"/>
      <point x="684" y="535"/>
      <point x="679" y="533" type="curve"/>
      <point x="640" y="518" type="line"/>
      <point x="606" y="645"/>
      <point x="504" y="710"/>
      <point x="363" y="710" type="curve" smooth="yes"/>
      <point x="190" y="710"/>
      <point x="76" y="616"/>
      <point x="70" y="435" type="curve" smooth="yes"/>
      <point x="68" y="386"/>
      <point x="67" y="342"/>
      <point x="68" y="294" type="curve"/>
      <point x="33" y="281" type="line"/>
      <point x="17" y="275"/>
      <point x="11" y="269"/>
      <point x="11" y="252" type="curve"/>
      <point x="11" y="196" type="line"/>
      <point x="11" y="184"/>
      <point x="19" y="177"/>
      <point x="31" y="177" type="curve" smooth="yes"/>
      <point x="34" y="177"/>
      <point x="38" y="178"/>
      <point x="43" y="180" type="curve"/>
      <point x="81" y="194" type="line"/>
      <point x="109" y="56"/>
      <point x="209" y="-10"/>
      <point x="363" y="-10" type="curve" smooth="yes"/>
    </contour>
    <contour>
      <point x="283" y="106"/>
      <point x="227" y="148"/>
      <point x="216" y="247" type="curve"/>
      <point x="512" y="363" type="line"/>
      <point x="513" y="330"/>
      <point x="512" y="305"/>
      <point x="511" y="269" type="curve" smooth="yes"/>
      <point x="507" y="155"/>
      <point x="448" y="106"/>
      <point x="363" y="106" type="curve" smooth="yes"/>
    </contour>
    <contour>
      <point x="213" y="378"/>
      <point x="214" y="401"/>
      <point x="215" y="431" type="curve"/>
      <point x="219" y="545"/>
      <point x="279" y="594"/>
      <point x="363" y="594" type="curve" smooth="yes"/>
      <point x="438" y="594"/>
      <point x="494" y="555"/>
      <point x="507" y="465" type="curve"/>
      <point x="214" y="352" type="line"/>
    </contour>
  </outline>
</glyph>
<glyph name="circumflex" format="1">
  <advance width="460"/>
  <unicode hex="02C6"/>
  <outline>
    <contour>
      <point x="114" y="595" type="line" smooth="yes"/>
      <point x="124" y="595"/>
      <point x="137" y="597"/>
      <point x="146" y="602" type="curve" smooth="yes"/>
      <point x="231" y="655" type="line"/>
      <point x="316" y="602" type="line" smooth="yes"/>
      <point x="324" y="597"/>
      <point x="337" y="595"/>
      <point x="347" y="595" type="curve" smooth="yes"/>
      <point x="384" y="595" type="line" smooth="yes"/>
      <point x="394" y="595"/>
      <point x="399" y="599"/>
      <point x="399" y="608" type="curve" smooth="yes"/>
      <point x="399" y="614"/>
      <point x="396" y="619"/>
      <point x="390" y="625" type="curve" smooth="yes"/>
      <point x="293" y="726" type="line" smooth="yes"/>
      <point x="279" y="740"/>
      <point x="271" y="742"/>
      <point x="258" y="742" type="curve" smooth="yes"/>
      <point x="203" y="742" type="line" smooth="yes"/>
      <point x="191" y="742"/>
      <point x="182" y="740"/>
      <point x="169" y="726" type="curve" smooth="yes"/>
      <point x="71" y="625" type="line" smooth="yes"/>
      <point x="65" y="619"/>
      <point x="62" y="614"/>
      <point x="62" y="608" type="curve" smooth="yes"/>
      <point x="62" y="599"/>
      <point x="67" y="595"/>
      <point x="77" y="595" type="curve" smooth="yes"/>
    </contour>
  </outline>
</glyph>
<glyph name="hungarumlaut" format="1">
  <advance width="502"/>
  <unicode hex="02DD"/>
  <outline>
    <contour>
      <point x="314" y="595" type="line" smooth="yes"/>
      <point x="327" y="595"/>
      <point x="337" y="600"/>
      <point x="345" y="609" type="curve" smooth="yes"/>
      <point x="434" y="710" type="line" smooth="yes"/>
      <point x="438" y="713"/>
      <point x="440" y="718"/>
      <point x="440" y="723" type="curve" smooth="yes"/>
      <point x="440" y="735"/>
      <point x="432" y="742"/>
      <point x="420" y="742" type="curve" smooth="yes"/>
      <point x="339" y="742" type="line" smooth="yes"/>
      <point x="318" y="742"/>
      <point x="308" y="736"/>
      <point x="302" y="723" type="curve" smooth="yes"/>
      <point x="258" y="626" type="line" smooth="yes"/>
      <point x="256" y="622"/>
      <point x="253" y="616"/>
      <point x="253" y="611" type="curve" smooth="yes"/>
      <point x="253" y="601"/>
      <point x="259" y="595"/>
      <point x="269" y="595" type="curve" smooth="yes"/>
    </contour>
    <contour>
      <point x="123" y="595" type="line" smooth="yes"/>
      <point x="136" y="595"/>
      <point x="146" y="600"/>
      <point x="154" y="609" type="curve" smooth="yes"/>
      <point x="243" y="710" type="line" smooth="yes"/>
      <point x="247" y="713"/>
      <point x="249" y="718"/>
      <point x="249" y="723" type="curve" smooth="yes"/>
      <point x="249" y="735"/>
      <point x="241" y="742"/>
      <point x="229" y="742" type="curve" smooth="yes"/>
      <point x="148" y="742" type="line" smooth="yes"/>
      <point x="127" y="742"/>
      <point x="117" y="736"/>
      <point x="111" y="723" type="curve" smooth="yes"/>
      <point x="67" y="626" type="line" smooth="yes"/>
      <point x="65" y="622"/>
      <point x="62" y="616"/>
      <point x="62" y="611" type="curve" smooth="yes"/>
      <point x="62" y="601"/>
      <point x="68" y="595"/>
      <point x="78" y="595" type="curve" smooth="yes"/>
    </contour>
  </outline>
</glyph>
<glyph name="U-cy" format="1">
  <advance width="639"/>
  <unicode hex="0423"/>
  <outline>
    <contour>
      <point x="164" y="0" type="line" smooth="yes"/>
      <point x="299" y="0"/>
      <point x="353" y="90"/>
      <point x="407" y="204" type="curve" smooth="yes"/>
      <point x="634" y="668" type="line" smooth="yes"/>
      <point x="636" y="672"/>
      <point x="636" y="675"/>
      <point x="636" y="680" type="curve" smooth="yes"/>
      <point x="636" y="691"/>
      <point x="626" y="700"/>
      <point x="615" y="700" type="curve" smooth="yes"/>
      <point x="516" y="700" type="line" smooth="yes"/>
      <point x="503" y="700"/>
      <point x="494" y="692"/>
      <point x="489" y="681" type="curve" smooth="yes"/>
      <point x="330" y="360" type="line"/>
      <point x="164" y="681" type="line" smooth="yes"/>
      <point x="159" y="692"/>
      <point x="151" y="700"/>
      <point x="137" y="700" type="curve" smooth="yes"/>
      <point x="38" y="700" type="line" smooth="yes"/>
      <point x="26" y="700"/>
      <point x="17" y="690"/>
      <point x="16" y="678" type="curve" smooth="yes"/>
      <point x="16" y="675"/>
      <point x="17" y="672"/>
      <point x="18" y="668" type="curve" smooth="yes"/>
      <point x="258" y="216" type="line"/>
      <point x="233" y="170"/>
      <point x="203" y="124"/>
      <point x="154" y="124" type="curve" smooth="yes"/>
      <point x="92" y="124" type="line"/>
      <point x="78" y="124"/>
      <point x="68" y="114"/>
      <point x="68" y="100" type="curve" smooth="yes"/>
      <point x="68" y="24" type="line" smooth="yes"/>
      <point x="68" y="10"/>
      <point x="78" y="0"/>
      <point x="92" y="0" type="curve" smooth="yes"/>
    </contour>
  </outline>
</glyph>
<glyph name="ge-cy" format="1">
  <advance width="497"/>
  <unicode hex="0433"/>
  <outline>
    <contour>
      <point x="173" y="0" type="line" smooth="yes"/>
      <point x="187" y="0"/>
      <point x="197" y="10"/>
      <point x="197" y="24" type="curve" smooth="yes"/>
      <point x="197" y="413" type="line"/>
      <point x="461" y="413" type="line" smooth="yes"/>
      <point x="475" y="413"/>
      <point x="485" y="424"/>
      <point x="485" y="437" type="curve" smooth="yes"/>
      <point x="485" y="496" type="line" smooth="yes"/>
      <point x="485" y="510"/>
      <point x="475" y="520"/>
      <point x="461" y="520" type="curve" smooth="yes"/>
      <point x="90" y="520" type="line" smooth="yes"/>
      <point x="76" y="520"/>
      <point x="66" y="510"/>
      <point x="66" y="496" type="curve" smooth="yes"/>
      <point x="66" y="24" type="line" smooth="yes"/>
      <point x="66" y="10"/>
      <point x="77" y="0"/>
      <point x="91" y="0" type="curve" smooth="yes"/>
    </contour>
  </outline>
</glyph>
<glyph name="te-cy" format="1">
  <advance width="531"/>
  <unicode hex="0442"/>
  <outline>
    <contour>
      <point x="307" y="0" type="line" smooth="yes"/>
      <point x="321" y="0"/>
      <point x="331" y="10"/>
      <point x="331" y="24" type="curve" smooth="yes"/>
      <point x="331" y="413" type="line"/>
      <point x="493" y="413" type="line" smooth="yes"/>
      <point x="507" y="413"/>
      <point x="518" y="424"/>
      <point x="518" y="437" type="curve" smooth="yes"/>
      <point x="518" y="496" type="line" smooth="yes"/>
      <point x="518" y="510"/>
      <point x="507" y="520"/>
      <point x="493" y="520" type="curve" smooth="yes"/>
      <point x="38" y="520" type="line"/>
      <point x="24" y="520"/>
      <point x="14" y="510"/>
      <point x="14" y="496" type="curve" smooth="yes"/>
      <point x="14" y="437" type="line" smooth="yes"/>
      <point x="14" y="424"/>
      <point x="24" y="413"/>
      <point x="38" y="413" type="curve" smooth="yes"/>
      <point x="200" y="413" type="line"/>
      <point x="200" y="24" type="line" smooth="yes"/>
      <point x="200" y="10"/>
      <point x="211" y="0"/>
      <point x="224" y="0" type="curve" smooth="yes"/>
    </contour>
  </outline>
</glyph>
<glyph name="ef-cy" format="1">
  <advance width="914"/>
  <unicode hex="0444"/>
  <outline>
    <contour>
      <point x="501" y="-190" type="line" smooth="yes"/>
      <point x="515" y="-190"/>
      <point x="525" y="-180"/>
      <point x="525" y="-166" type="curve" smooth="yes"/>
      <point x="525" y="61" type="line"/>
      <point x="557" y="18"/>
      <point x="603" y="-10"/>
      <point x="669" y="-10" type="curve" smooth="yes"/>
      <point x="802" y="-10"/>
      <point x="863" y="90"/>
      <point x="868" y="224" type="curve" smooth="yes"/>
      <point x="869" y="248"/>
      <point x="869" y="271"/>
      <point x="868" y="296" type="curve" smooth="yes"/>
      <point x="863" y="433"/>
      <point x="802" y="530"/>
      <point x="669" y="530" type="curve" smooth="yes"/>
      <point x="598" y="530"/>
      <point x="557" y="503"/>
      <point x="525" y="460" type="curve"/>
      <point x="525" y="686" type="line" smooth="yes"/>
      <point x="525" y="700"/>
      <point x="515" y="710"/>
      <point x="501" y="710" type="curve" smooth="yes"/>
      <point x="414" y="710" type="line" smooth="yes"/>
      <point x="400" y="710"/>
      <point x="390" y="700"/>
      <point x="390" y="686" type="curve" smooth="yes"/>
      <point x="390" y="460" type="line"/>
      <point x="358" y="503"/>
      <point x="318" y="530"/>
      <point x="246" y="530" type="curve" smooth="yes"/>
      <point x="113" y="530"/>
      <point x="52" y="433"/>
      <point x="47" y="296" type="curve" smooth="yes"/>
      <point x="46" y="271"/>
      <point x="46" y="248"/>
      <point x="47" y="224" type="curve" smooth="yes"/>
      <point x="52" y="90"/>
      <point x="113" y="-10"/>
      <point x="246" y="-10" type="curve" smooth="yes"/>
      <point x="312" y="-10"/>
      <point x="358" y="18"/>
      <point x="390" y="61" type="curve"/>
      <point x="390" y="-166" type="line" smooth="yes"/>
      <point x="390" y="-180"/>
      <point x="400" y="-190"/>
      <point x="414" y="-190" type="curve" smooth="yes"/>
    </contour>
    <contour>
      <point x="214" y="98"/>
      <point x="188" y="159"/>
      <point x="184" y="230" type="curve" smooth="yes"/>
      <point x="183" y="250"/>
      <point x="183" y="270"/>
      <point x="184" y="290" type="curve" smooth="yes"/>
      <point x="188" y="361"/>
      <point x="214" y="422"/>
      <point x="284" y="422" type="curve" smooth="yes"/>
      <point x="358" y="422"/>
      <point x="387" y="358"/>
      <point x="390" y="295" type="curve" smooth="yes"/>
      <point x="391" y="271"/>
      <point x="391" y="243"/>
      <point x="390" y="218" type="curve" smooth="yes"/>
      <point x="388" y="158"/>
      <point x="355" y="98"/>
      <point x="284" y="98" type="curve" smooth="yes"/>
    </contour>
    <contour>
      <point x="560" y="98"/>
      <point x="527" y="158"/>
      <point x="525" y="218" type="curve" smooth="yes"/>
      <point x="524" y="243"/>
      <point x="524" y="271"/>
      <point x="525" y="295" type="curve" smooth="yes"/>
      <point x="528" y="358"/>
      <point x="557" y="422"/>
      <point x="631" y="422" type="curve" smooth="yes"/>
      <point x="701" y="422"/>
      <point x="727" y="361"/>
      <point x="731" y="290" type="curve" smooth="yes"/>
      <point x="732" y="270"/>
      <point x="732" y="250"/>
      <point x="731" y="230" type="curve" smooth="yes"/>
      <point x="727" y="159"/>
      <point x="701" y="98"/>
      <point x="631" y="98" type="curve" smooth="yes"/>
    </contour>
  </outline>
</glyph>
<glyph name="dzhe-cy" format="1">
  <advance width="563"/>
  <unicode hex="045F"/>
  <outline>
    <contour>
      <point x="314" y="-110" type="line" smooth="yes"/>
      <point x="328" y="-110"/>
      <point x="338" y="-102"/>
      <point x="338" y="-88" type="curve" smooth="yes"/>
      <point x="338" y="0" type="line"/>
      <point x="473" y="0" type="line" smooth="yes"/>
      <point x="487" y="0"/>
      <point x="497" y="10"/>
      <point x="497" y="24" type="curve" smooth="yes"/>
      <point x="497" y="496" type="line" smooth="yes"/>
      <point x="497" y="510"/>
      <point x="487" y="520"/>
      <point x="473" y="520" type="curve" smooth="yes"/>
      <point x="397" y="520" type="line" smooth="yes"/>
      <point x="383" y="520"/>
      <point x="373" y="510"/>
      <point x="373" y="496" type="curve" smooth="yes"/>
      <point x="373" y="111" type="line"/>
      <point x="190" y="111" type="line"/>
      <point x="190" y="496" type="line" smooth="yes"/>
      <point x="190" y="510"/>
      <point x="180" y="520"/>
      <point x="166" y="520" type="curve" smooth="yes"/>
      <point x="90" y="520" type="line" smooth="yes"/>
      <point x="76" y="520"/>
      <point x="66" y="510"/>
      <point x="66" y="496" type="curve" smooth="yes"/>
      <point x="66" y="24" type="line" smooth="yes"/>
      <point x="66" y="10"/>
      <point x="76" y="0"/>
      <point x="90" y="0" type="curve" smooth="yes"/>
      <point x="226" y="0" type="line"/>
      <point x="226" y="-86" type="line" smooth="yes"/>
      <point x="226" y="-100"/>
      <point x="236" y="-110"/>
      <point x="250" y="-110" type="curve" smooth="yes"/>
    </contour>
  </outline>
</glyph>
<glyph name="dagger" format="1">
  <advance width="453"/>
  <unicode hex="2020"/>
  <outline>
    <contour>
      <point x="260" y="0" type="line" smooth="yes"/>
      <point x="274" y="0"/>
      <point x="284" y="10"/>
      <point x="284" y="24" type="curve" smooth="yes"/>
      <point x="284" y="413" type="line"/>
      <point x="399" y="413" type="line" smooth="yes"/>
      <point x="413" y="413"/>
      <point x="423" y="423"/>
      <point x="423" y="437" type="curve" smooth="yes"/>
      <point x="423" y="500" type="line" smooth="yes"/>
      <point x="423" y="514"/>
      <point x="413" y="524"/>
      <point x="399" y="524" type="curve" smooth="yes"/>
      <point x="284" y="524" type="line"/>
      <point x="284" y="676" type="line" smooth="yes"/>
      <point x="284" y="690"/>
      <point x="274" y="700"/>
      <point x="260" y="700" type="curve" smooth="yes"/>
      <point x="194" y="700" type="line" smooth="yes"/>
      <point x="180" y="700"/>
      <point x="170" y="690"/>
      <point x="170" y="676" type="curve" smooth="yes"/>
      <point x="170" y="524" type="line"/>
      <point x="55" y="524" type="line"/>
      <point x="41" y="524"/>
      <point x="31" y="514"/>
      <point x="31" y="500" type="curve" smooth="yes"/>
      <point x="31" y="437" type="line" smooth="yes"/>
      <point x="31" y="423"/>
      <point x="41" y="413"/>
      <point x="55" y="413" type="curve" smooth="yes"/>
      <point x="170" y="413" type="line"/>
      <point x="170" y="24" type="line" smooth="yes"/>
      <point x="170" y="10"/>
      <point x="180" y="0"/>
      <point x="194" y="0" type="curve" smooth="yes"/>
    </contour>
  </outline>
</glyph>
<glyph name="daggerdbl" format="1">
  <advance width="495"/>
  <unicode hex="2021"/>
  <outline>
    <contour>
      <point x="281" y="0" type="line" smooth="yes"/>
      <point x="295" y="0"/>
      <point x="305" y="10"/>
      <point x="305" y="24" type="curve" smooth="yes"/>
      <point x="305" y="164" type="line"/>
      <point x="420" y="164" type="line" smooth="yes"/>
      <point x="434" y="164"/>
      <point x="444" y="174"/>
      <point x="444" y="188" type="curve" smooth="yes"/>
      <point x="444" y="251" type="line" smooth="yes"/>
      <point x="444" y="265"/>
      <point x="434" y="275"/>
      <point x="420" y="275" type="curve" smooth="yes"/>
      <point x="305" y="275" type="line"/>
      <point x="305" y="438" type="line"/>
      <point x="420" y="438" type="line" smooth="yes"/>
      <point x="434" y="438"/>
      <point x="444" y="448"/>
      <point x="444" y="462" type="curve" smooth="yes"/>
      <point x="444" y="525" type="line" smooth="yes"/>
      <point x="444" y="539"/>
      <point x="434" y="549"/>
      <point x="420" y="549" type="curve" smooth="yes"/>
      <point x="305" y="549" type="line"/>
      <point x="305" y="676" type="line" smooth="yes"/>
      <point x="305" y="690"/>
      <point x="295" y="700"/>
      <point x="281" y="700" type="curve" smooth="yes"/>
      <point x="215" y="700" type="line" smooth="yes"/>
      <point x="201" y="700"/>
      <point x="191" y="690"/>
      <point x="191" y="676" type="curve" smooth="yes"/>
      <point x="191" y="549" type="line"/>
      <point x="76" y="549" type="line" smooth="yes"/>
      <point x="62" y="549"/>
      <point x="52" y="539"/>
      <point x="52" y="525" type="curve" smooth="yes"/>
      <point x="52" y="462" type="line" smooth="yes"/>
      <point x="52" y="448"/>
      <point x="62" y="438"/>
      <point x="76" y="438" type="curve" smooth="yes"/>
      <point x="191" y="438" type="line"/>
      <point x="191" y="275" type="line"/>
      <point x="76" y="275" type="line" smooth="yes"/>
      <point x="62" y="275"/>
      <point x="52" y="265"/>
      <point x="52" y="251" type="curve" smooth="yes"/>
      <point x="52" y="188" type="line" smooth="yes"/>
      <point x="52" y="174"/>
      <point x="62" y="164"/>
      <point x="76" y="164" type="curve" smooth="yes"/>
      <point x="191" y="164" type="line"/>
      <point x="191" y="24" type="line" smooth="yes"/>
      <point x="191" y="10"/>
      <point x="201" y="0"/>
      <point x="215" y="0" type="curve" smooth="yes"/>
    </contour>
  </outline>
</glyph>
<glyph name="product" format="1">
  <advance width="642"/>
  <unicode hex="220F"/>
  <outline>
    <contour>
      <point x="172" y="-200" type="line" smooth="yes"/>
      <point x="186" y="-200"/>
      <point x="196" y="-190"/>
      <point x="196" y="-176" type="curve" smooth="yes"/>
      <point x="196" y="570" type="line"/>
      <point x="446" y="570" type="line"/>
      <point x="446" y="-176" type="line" smooth="yes"/>
      <point x="446" y="-190"/>
      <point x="456" y="-200"/>
      <point x="470" y="-200" type="curve" smooth="yes"/>
      <point x="547" y="-200" type="line" smooth="yes"/>
      <point x="561" y="-200"/>
      <point x="571" y="-190"/>
      <point x="571" y="-176" type="curve" smooth="yes"/>
      <point x="571" y="676" type="line" smooth="yes"/>
      <point x="571" y="690"/>
      <point x="561" y="700"/>
      <point x="547" y="700" type="curve" smooth="yes"/>
      <point x="95" y="700" type="line" smooth="yes"/>
      <point x="81" y="700"/>
      <point x="71" y="690"/>
      <point x="71" y="676" type="curve" smooth="yes"/>
      <point x="71" y="-176" type="line" smooth="yes"/>
      <point x="71" y="-190"/>
      <point x="81" y="-200"/>
      <point x="95" y="-200" type="curve" smooth="yes"/>
    </contour>
  </outline>
</glyph>
<glyph name="radical" format="1">
  <advance width="714"/>
  <unicode hex="221A"/>
  <outline>
    <contour>
      <point x="296" y="0" type="line" smooth="yes"/>
      <point x="312" y="0"/>
      <point x="320" y="10"/>
      <point x="325" y="25" type="curve" smooth="yes"/>
      <point x="542" y="760" type="line"/>
      <point x="675" y="760" type="line" smooth="yes"/>
      <point x="689" y="760"/>
      <point x="699" y="770"/>
      <point x="699" y="784" type="curve" smooth="yes"/>
      <point x="699" y="836" type="line" smooth="yes"/>
      <point x="699" y="850"/>
      <point x="689" y="860"/>
      <point x="675" y="860" type="curve" smooth="yes"/>
      <point x="474" y="860" type="line" smooth="yes"/>
      <point x="458" y="860"/>
      <point x="450" y="846"/>
      <point x="446" y="836" type="curve"/>
      <point x="252" y="152" type="line"/>
      <point x="135" y="501" type="line" smooth="yes"/>
      <point x="132" y="509"/>
      <point x="124" y="520"/>
      <point x="108" y="520" type="curve" smooth="yes"/>
      <point x="43" y="520" type="line" smooth="yes"/>
      <point x="31" y="520"/>
      <point x="21" y="510"/>
      <point x="21" y="498" type="curve" smooth="yes"/>
      <point x="21" y="496"/>
      <point x="22" y="492"/>
      <point x="23" y="489" type="curve"/>
      <point x="183" y="19" type="line"/>
      <point x="187" y="9"/>
      <point x="194" y="0"/>
      <point x="209" y="0" type="curve" smooth="yes"/>
    </contour>
  </outline>
</glyph>
<glyph name="Grave" format="1">
  <advance width="375"/>
  <unicode hex="F6CE"/>
  <outline>
    <contour>
      <point x="297" y="750" type="line" smooth="yes"/>
      <point x="307" y="750"/>
      <point x="313" y="756"/>
      <point x="313" y="766" type="curve" smooth="yes"/>
      <point x="313" y="771"/>
      <point x="311" y="776"/>
      <point x="308" y="779" type="curve" smooth="yes"/>
      <point x="227" y="878" type="line"/>
      <point x="214" y="893"/>
      <point x="207" y="897"/>
      <point x="190" y="897" type="curve" smooth="yes"/>
      <point x="81" y="897" type="line" smooth="yes"/>
      <point x="69" y="897"/>
      <point x="62" y="889"/>
      <point x="62" y="877" type="curve" smooth="yes"/>
      <point x="62" y="872"/>
      <point x="64" y="868"/>
      <point x="67" y="865" type="curve" smooth="yes"/>
      <point x="192" y="763" type="line" smooth="yes"/>
      <point x="203" y="754"/>
      <point x="211" y="750"/>
      <point x="227" y="750" type="curve" smooth="yes"/>
    </contour>
  </outline>
</glyph>
<glyph name="fl" format="1">
  <advance width="656"/>
  <unicode hex="FB02"/>
  <outline>
    <contour>
      <point x="229" y="0" type="line" smooth="yes"/>
      <point x="243" y="0"/>
      <point x="253" y="10"/>
      <point x="253" y="24" type="curve" smooth="yes"/>
      <point x="253" y="413" type="line"/>
      <point x="458" y="413" type="line"/>
      <point x="458" y="24" type="line" smooth="yes"/>
      <point x="458" y="10"/>
      <point x="468" y="0"/>
      <point x="482" y="0" type="curve" smooth="yes"/>
      <point x="565" y="0" type="line" smooth="yes"/>
      <point x="579" y="0"/>
      <point x="589" y="10"/>
      <point x="589" y="24" type="curve" smooth="yes"/>
      <point x="589" y="716" type="line" smooth="yes"/>
      <point x="589" y="730"/>
      <point x="579" y="740"/>
      <point x="565" y="740" type="curve" smooth="yes"/>
      <point x="482" y="740" type="line" smooth="yes"/>
      <point x="468" y="740"/>
      <point x="458" y="730"/>
      <point x="458" y="716" type="curve" smooth="yes"/>
      <point x="458" y="520" type="line"/>
      <point x="253" y="520" type="line"/>
      <point x="253" y="555" type="line" smooth="yes"/>
      <point x="253" y="606"/>
      <point x="269" y="633"/>
      <point x="323" y="633" type="curve" smooth="yes"/>
      <point x="379" y="633" type="line" smooth="yes"/>
      <point x="393" y="633"/>
      <point x="403" y="644"/>
      <point x="403" y="657" type="curve" smooth="yes"/>
      <point x="403" y="716" type="line" smooth="yes"/>
      <point x="403" y="730"/>
      <point x="393" y="740"/>
      <point x="379" y="740" type="curve" smooth="yes"/>
      <point x="318" y="740" type="line" smooth="yes"/>
      <point x="187" y="740"/>
      <point x="122" y="681"/>
      <point x="122" y="560" type="curve" smooth="yes"/>
      <point x="122" y="520" type="line"/>
      <point x="41" y="520" type="line" smooth="yes"/>
      <point x="27" y="520"/>
      <point x="17" y="510"/>
      <point x="17" y="496" type="curve" smooth="yes"/>
      <point x="17" y="437" type="line" smooth="yes"/>
      <point x="17" y="424"/>
      <point x="27" y="413"/>
      <point x="41" y="413" type="curve" smooth="yes"/>
      <point x="122" y="413" type="line"/>
      <point x="122" y="24" type="line" smooth="yes"/>
      <point x="122" y="10"/>
      <point x="132" y="0"/>
      <point x="146" y="0" type="curve" smooth="yes"/>
    </contour>
  </outline>
</glyph>
<glyph name="Breve" format="1">
  <advance width="405"/>
  <outline>
    <contour>
      <point x="306" y="742"/>
      <point x="344" y="804"/>
      <point x="344" y="875" type="curve" smooth="yes"/>
      <point x="344" y="885"/>
      <point x="337" y="894"/>
      <point x="325" y="894" type="curve" smooth="yes"/>
      <point x="275" y="894" type="line" smooth="yes"/>
      <point x="263" y="894"/>
      <point x="256" y="885"/>
      <point x="256" y="875" type="curve" smooth="yes"/>
      <point x="256" y="844"/>
      <point x="245" y="813"/>
      <point x="203" y="813" type="curve" smooth="yes"/>
      <point x="161" y="813"/>
      <point x="150" y="844"/>
      <point x="150" y="875" type="curve" smooth="yes"/>
      <point x="150" y="885"/>
      <point x="143" y="894"/>
      <point x="131" y="894" type="curve" smooth="yes"/>
      <point x="81" y="894" type="line" smooth="yes"/>
      <point x="69" y="894"/>
      <point x="62" y="885"/>
      <point x="62" y="875" type="curve" smooth="yes"/>
      <point x="62" y="804"/>
      <point x="100" y="742"/>
      <point x="203" y="742" type="curve" smooth="yes"/>
    </contour>
  </outline>
</glyph>
<glyph name="Cedilla" format="1">
  <advance width="304"/>
  <outline>
    <contour>
      <point x="209" y="-221"/>
      <point x="243" y="-181"/>
      <point x="243" y="-131" type="curve" smooth="yes"/>
      <point x="243" y="-81"/>
      <point x="212" y="-46"/>
      <point x="165" y="-46" type="curve" smooth="yes"/>
      <point x="154" y="-46"/>
      <point x="138" y="-48"/>
      <point x="130" y="-53" type="curve"/>
      <point x="170" y="27" type="line"/>
      <point x="108" y="27" type="line"/>
      <point x="73" y="-53" type="line" smooth="yes"/>
      <point x="67" y="-66"/>
      <point x="63" y="-75"/>
      <point x="71" y="-84" type="curve" smooth="yes"/>
      <point x="89" y="-103" type="line" smooth="yes"/>
      <point x="104" y="-117"/>
      <point x="121" y="-100"/>
      <point x="147" y="-100" type="curve" smooth="yes"/>
      <point x="169" y="-100"/>
      <point x="184" y="-113"/>
      <point x="184" y="-132" type="curve" smooth="yes"/>
      <point x="184" y="-152"/>
      <point x="168" y="-166"/>
      <point x="147" y="-166" type="curve" smooth="yes"/>
      <point x="107" y="-166"/>
      <point x="101" y="-138"/>
      <point x="84" y="-154" type="curve" smooth="yes"/>
      <point x="67" y="-169" type="line" smooth="yes"/>
      <point x="48" y="-186"/>
      <point x="92" y="-219"/>
      <point x="147" y="-220" type="curve" smooth="yes"/>
    </contour>
  </outline>
</glyph>
<glyph name="bracketleft.cap" format="1">
  <advance width="373"/>
  <outline>
    <contour>
      <point x="309" y="-117" type="line" smooth="yes"/>
      <point x="323" y="-117"/>
      <point x="334" y="-107"/>
      <point x="334" y="-93" type="curve" smooth="yes"/>
      <point x="334" y="-24" type="line" smooth="yes"/>
      <point x="334" y="-10"/>
      <point x="323" y="1"/>
      <point x="309" y="1" type="curve" smooth="yes"/>
      <point x="195" y="1" type="line"/>
      <point x="195" y="708" type="line"/>
      <point x="309" y="708" type="line" smooth="yes"/>
      <point x="323" y="708"/>
      <point x="334" y="718"/>
      <point x="334" y="732" type="curve" smooth="yes"/>
      <point x="334" y="794" type="line" smooth="yes"/>
      <point x="334" y="808"/>
      <point x="323" y="818"/>
      <point x="309" y="818" type="curve" smooth="yes"/>
      <point x="95" y="818" type="line" smooth="yes"/>
      <point x="81" y="818"/>
      <point x="71" y="808"/>
      <point x="71" y="794" type="curve" smooth="yes"/>
      <point x="71" y="-93" type="line" smooth="yes"/>
      <point x="71" y="-107"/>
      <point x="81" y="-117"/>
      <point x="95" y="-117" type="curve" smooth="yes"/>
    </contour>
  </outline>
</glyph>
<glyph name="endash.cap" format="1">
  <advance width="578"/>
  <outline>
    <contour>
      <point x="488" y="292" type="line" smooth="yes"/>
      <point x="501" y="292"/>
      <point x="512" y="303"/>
      <point x="512" y="316" type="curve" smooth="yes"/>
      <point x="512" y="384" type="line" smooth="yes"/>
      <point x="512" y="398"/>
      <point x="501" y="408"/>
      <point x="488" y="408" type="curve" smooth="yes"/>
      <point x="90" y="408" type="line" smooth="yes"/>
      <point x="76" y="408"/>
      <point x="66" y="398"/>
      <point x="66" y="384" type="curve" smooth="yes"/>
      <point x="66" y="316" type="line" smooth="yes"/>
      <point x="66" y="303"/>
      <point x="76" y="292"/>
      <point x="90" y="292" type="curve" smooth="yes"/>
    </contour>
  </outline>
</glyph>
<glyph name="notequal.cap" format="1">
  <advance width="557"/>
  <outline>
    <contour>
      <point x="189" y="71" type="line" smooth="yes"/>
      <point x="208" y="71"/>
      <point x="217" y="84"/>
      <point x="220" y="92" type="curve" smooth="yes"/>
      <point x="254" y="173" type="line"/>
      <point x="472" y="173" type="line" smooth="yes"/>
      <point x="485" y="173"/>
      <point x="496" y="183"/>
      <point x="496" y="197" type="curve" smooth="yes"/>
      <point x="496" y="253" type="line" smooth="yes"/>
      <point x="496" y="267"/>
      <point x="485" y="277"/>
      <point x="472" y="277" type="curve" smooth="yes"/>
      <point x="298" y="277" type="line"/>
      <point x="358" y="423" type="line"/>
      <point x="472" y="423" type="line" smooth="yes"/>
      <point x="485" y="423"/>
      <point x="496" y="433"/>
      <point x="496" y="447" type="curve" smooth="yes"/>
      <point x="496" y="503" type="line" smooth="yes"/>
      <point x="496" y="517"/>
      <point x="485" y="527"/>
      <point x="472" y="527" type="curve" smooth="yes"/>
      <point x="402" y="527" type="line"/>
      <point x="432" y="598" type="line" smooth="yes"/>
      <point x="434" y="603"/>
      <point x="435" y="607"/>
      <point x="435" y="609" type="curve" smooth="yes"/>
      <point x="435" y="621"/>
      <point x="425" y="630"/>
      <point x="414" y="630" type="curve" smooth="yes"/>
      <point x="365" y="630" type="line" smooth="yes"/>
      <point x="347" y="630"/>
      <point x="337" y="618"/>
      <point x="333" y="609" type="curve" smooth="yes"/>
      <point x="299" y="527" type="line"/>
      <point x="84" y="527" type="line" smooth="yes"/>
      <point x="70" y="527"/>
      <point x="60" y="517"/>
      <point x="60" y="503" type="curve" smooth="yes"/>
      <point x="60" y="447" type="line" smooth="yes"/>
      <point x="60" y="433"/>
      <point x="70" y="423"/>
      <point x="84" y="423" type="curve" smooth="yes"/>
      <point x="256" y="423" type="line"/>
      <point x="195" y="277" type="line"/>
      <point x="84" y="277" type="line" smooth="yes"/>
      <point x="70" y="277"/>
      <point x="60" y="267"/>
      <point x="60" y="253" type="curve" smooth="yes"/>
      <point x="60" y="197" type="line" smooth="yes"/>
      <point x="60" y="183"/>
      <point x="70" y="173"/>
      <point x="84" y="173" type="curve" smooth="yes"/>
      <point x="152" y="173" type="line"/>
      <point x="123" y="103" type="line" smooth="yes"/>
      <point x="121" y="98"/>
      <point x="120" y="94"/>
      <point x="120" y="92" type="curve" smooth="yes"/>
      <point x="120" y="80"/>
      <point x="130" y="71"/>
      <point x="141" y="71" type="curve" smooth="yes"/>
    </contour>
  </outline>
</glyph>
